<svg width="200" height="200" viewBox="0 0 200 200" fill="none" xmlns="http://www.w3.org/2000/svg">
<g id="side">
<path d="M73.9296 126.297V187.993L65.4681 199.86H21.4731L73.9296 126.297Z" fill="#151A21"/>
<path d="M110.636 48.6692L89.3067 78.5793L90.83 80.6767L73.6774 104.729V118.003L70.091 113.069L65.9246 118.911L43.7178 88.3521L106.623 0.132324H110.636V48.6692Z" fill="#151A21"/>
<path d="M178.709 199.86H134.361L106.431 161.426V100.497L159.087 172.954L159.095 172.964L178.709 199.86Z" fill="#151A21"/>
</g>
<g id="mid">
<path d="M145.249 0.132324L110.636 48.6692V0.132324H145.249Z" fill="#07FF88"/>
<path d="M90.8301 80.6767L106.432 100.497V161.426L99.5867 151.908L73.9297 187.993L73.7078 126.609L76.3383 121.73L73.6775 118.003V104.37L90.8301 80.6767Z" fill="#07FF88"/>
</g>
</svg>
